<svg xmlns="http://www.w3.org/2000/svg" xml:space="preserve" viewBox="0 0 512 512"><linearGradient id="a" x1="250.61" x2="501.22" y1="128.011" y2="128.011" gradientUnits="userSpaceOnUse"><stop offset=".092" style="stop-color:#fbfbfc"/><stop offset="1" style="stop-color:#f7f7f7"/></linearGradient><path d="M501.22 41.433v214.59H250.61V0h209.178c5.088 0 10.015.889 14.537 2.666 11.226 4.2 20.11 13.085 24.229 24.229 1.697 4.523 2.666 9.449 2.666 14.538z" style="fill:url(#a)"/><linearGradient id="b" x1="0" x2="250.61" y1="128.011" y2="128.011" gradientUnits="userSpaceOnUse"><stop offset=".092" style="stop-color:#fbfbfc"/><stop offset="1" style="stop-color:#f7f7f7"/></linearGradient><path d="M250.61 0v256.023H0V41.433C0 18.576 18.576 0 41.432 0H250.61z" style="fill:url(#b)"/><linearGradient id="c" x1="-.036" x2="501.223" y1="384.005" y2="384.005" gradientUnits="userSpaceOnUse"><stop offset=".034" style="stop-color:#57bdb0"/><stop offset="1" style="stop-color:#54bb9e"/></linearGradient><path d="M501.223 256.01v214.57c0 22.903-18.55 41.42-41.42 41.42h-209.21V256.01h250.63z" style="fill:url(#c)"/><linearGradient id="d" x1="0" x2="250.61" y1="383.993" y2="383.993" gradientUnits="userSpaceOnUse"><stop offset=".092" style="stop-color:#fbfbfc"/><stop offset="1" style="stop-color:#f7f7f7"/></linearGradient><path d="M250.61 256.023v255.94H41.432c-5.734 0-11.145-1.132-16.072-3.23-10.015-4.2-18.01-12.276-22.21-22.21C1.131 481.595 0 476.266 0 470.61V256.023h250.61z" style="fill:url(#d)"/><path d="M136.154 117.862V86.02h-21.693v31.842H81.889v20.078h32.572v32.105h21.693V137.94h32.575v-20.078zM343.027 117.17h65.765v21.722h-65.765zM164.069 359.53l-13.379-12.906-25.383 24.492-25.379-24.492-13.379 12.906 25.38 24.491-25.38 24.485 13.379 12.912 25.379-24.491 25.383 24.491 13.379-12.912-25.383-24.485z" style="fill:#fff"/><linearGradient id="e" x1="338.643" x2="413.188" y1="384.032" y2="384.032" gradientUnits="userSpaceOnUse"><stop offset=".034" style="stop-color:#fff"/><stop offset="1" style="stop-color:#54bb9e"/></linearGradient><path d="M338.643 394.289v14.053h74.545v-14.053h-74.545zm0-34.567v14.053h74.545v-14.053h-74.545z" style="opacity:.4;fill:url(#e)"/><path d="M247.379 0h6.461v511.962h-6.461z" style="fill:#d4d4d4"/><path d="M0 252.791h501.22v6.462H0z" style="fill:#d4d4d4"/><path d="M336.704 393.078v13.972h74.626v-13.972h-74.626zm0-34.567v14.053h74.626v-14.053h-74.626z" style="fill:#fff"/><path d="M134.259 116.643V84.801h-21.693v31.842H79.994v20.079h32.572v32.105h21.693v-32.105h32.575v-20.079zM341.132 115.952h65.765v21.722h-65.765zM162.174 358.312l-13.379-12.906-25.383 24.492-25.379-24.492-13.378 12.906 25.379 24.491-25.379 24.485L98.033 420.2l25.379-24.491 25.383 24.491 13.379-12.912-25.383-24.485z" style="fill:#979696"/></svg>